M48
; DRILL file {KiCad (5.1.10)-1} date 09/09/21 00:33:49
; FORMAT={-:-/ absolute / inch / decimal}
; #@! TF.CreationDate,2021-09-09T00:33:49+07:00
; #@! TF.GenerationSoftware,Kicad,Pcbnew,(5.1.10)-1
; #@! TF.FileFunction,Plated,1,4,PTH
FMAT,2
INCH
T1C0.0118
T2C0.0197
T3C0.0272
T4C0.0315
T5C0.0394
T6C0.0598
%
G90
G05
T1
X1.72Y-1.97
X1.76Y-2.21
X1.76Y-2.4
X1.79Y-4.82
X1.8Y-1.97
X1.82Y-2.51
X1.82Y-2.64
X1.82Y-4.37
X1.85Y-2.54
X1.85Y-2.67
X1.85Y-4.57
X1.88Y-2.57
X1.88Y-2.7
X1.88Y-4.02
X1.89Y-5.2
X1.93Y-5.2
X1.94Y-1.97
X1.97Y-5.2
X1.98Y-2.21
X1.98Y-2.4
X1.99Y-4.82
X2.01Y-2.83
X2.01Y-3.13
X2.01Y-5.2
X2.02Y-1.97
X2.02Y-2.67
X2.02Y-3.38
X2.02Y-3.81
X2.05Y-4.12
X2.08Y-4.17
X2.08Y-4.82
X2.11Y-4.47
X2.14Y-4.52
X2.16Y-1.97
X2.17Y-4.82
X2.2Y-2.21
X2.2Y-2.4
X2.21Y-5.2
X2.24Y-1.97
X2.25Y-5.2
X2.26Y-4.82
X2.27Y-2.48
X2.27Y-2.6
X2.29Y-5.2
X2.33Y-2.88
X2.33Y-2.93
X2.33Y-5.2
X2.35Y-4.82
X2.36Y-3.13
X2.36Y-3.9
X2.36Y-4.07
X2.4Y-2.68
X2.4Y-3.34
X2.4Y-3.64
X2.4Y-4.12
X2.42Y-1.97
X2.42Y-2.4
X2.43Y-2.7
X2.44Y-3.23
X2.44Y-3.94
X2.44Y-4.17
X2.44Y-4.24
X2.44Y-4.47
X2.46Y-2.72
X2.47Y-3.39
X2.47Y-3.69
X2.47Y-3.99
X2.47Y-4.29
X2.47Y-4.59
X2.49Y-2.75
X2.6Y-2.37
X2.62Y-1.87
X2.62Y-1.9
X2.62Y-1.93
X2.69Y-1.94
X2.69Y-2.02
X2.75Y-1.61
X2.95Y-4.82
X2.99Y-3.28
X3.01Y-2.36
X3.03Y-5.2
X3.04Y-4.82
X3.0436Y-2.98
X3.07Y-5.2
X3.09Y-2.57
X3.11Y-2.24
X3.11Y-5.2
X3.12Y-2.6
X3.12Y-2.67
X3.13Y-4.82
X3.15Y-5.2
X3.16Y-2.67
X3.2Y-2.67
X3.21Y-3.86
X3.23Y-4.12
X3.26Y-2.24
X3.26Y-4.17
X3.26Y-4.82
X3.29Y-4.47
X3.32Y-4.52
X3.35Y-4.82
X3.36Y-2.74
X3.36Y-4.37
X3.39Y-5.2
X3.43Y-5.2
X3.44Y-4.82
X3.47Y-5.2
X3.5Y-2.68
X3.5Y-3.38
X3.5Y-3.53
X3.5Y-4.67
X3.51Y-5.2
X3.53Y-4.82
X3.54Y-2.04
X3.54Y-2.93
X3.54Y-3.9
X3.54Y-4.07
X3.55Y-2.51
X3.57Y-1.94
X3.57Y-2.17
X3.58Y-2.74
X3.58Y-3.03
X3.58Y-3.64
X3.58Y-4.12
X3.6Y-1.97
X3.61Y-2.45
X3.61Y-2.51
X3.62Y-1.71
X3.62Y-2.37
X3.62Y-2.68
X3.62Y-3.04
X3.62Y-3.33
X3.62Y-3.94
X3.62Y-4.17
X3.62Y-4.24
X3.62Y-4.47
X3.65Y-2.79
X3.65Y-3.09
X3.65Y-3.39
X3.65Y-3.69
X3.65Y-3.99
X3.65Y-4.29
X3.65Y-4.59
X3.78Y-1.9
X3.78Y-2.04
X3.8307Y-2.2992
X3.8504Y-2.3583
X3.88Y-2.0
X3.93Y-2.27
X3.93Y-2.63
X3.98Y-2.04
X4.03Y-2.6
X4.0787Y-2.2677
X4.08Y-1.94
X4.08Y-2.3609
X4.1Y-3.53
X4.13Y-2.98
X4.13Y-4.82
X4.17Y-3.28
X4.18Y-1.94
X4.18Y-2.3611
X4.2Y-2.23
X4.21Y-5.2
X4.22Y-4.82
X4.23Y-2.67
X4.25Y-5.2
X4.28Y-1.97
X4.28Y-2.26
X4.29Y-5.2
X4.31Y-4.82
X4.33Y-1.56
X4.33Y-2.26
X4.33Y-5.2
X4.36Y-2.67
X4.38Y-2.3603
X4.39Y-2.72
X4.39Y-3.86
X4.41Y-4.12
X4.44Y-4.17
X4.44Y-4.82
X4.47Y-1.79
X4.47Y-4.47
X4.5Y-4.52
X4.53Y-4.82
X4.54Y-1.71
X4.54Y-2.37
X4.57Y-5.2
X4.61Y-5.2
X4.62Y-4.82
X4.65Y-5.2
X4.68Y-3.53
X4.68Y-4.67
X4.69Y-2.67
X4.69Y-3.38
X4.69Y-5.2
X4.71Y-4.82
X4.72Y-2.54
X4.72Y-2.93
X4.72Y-4.07
X4.75Y-2.35
X4.76Y-2.74
X4.76Y-3.03
X4.76Y-3.64
X4.76Y-4.12
X4.8Y-2.67
X4.8Y-3.04
X4.8Y-3.33
X4.8Y-3.94
X4.8Y-4.17
X4.8Y-4.24
X4.8Y-4.47
X4.83Y-2.79
X4.83Y-3.09
X4.83Y-3.39
X4.83Y-3.69
X4.83Y-3.99
X4.83Y-4.29
X4.83Y-4.59
X4.85Y-2.23
X4.9Y-2.57
X5.0Y-2.0
X5.05Y-2.29
X5.1Y-1.56
X5.1Y-2.03
X5.1Y-2.26
X5.1Y-2.35
X5.15Y-2.28
X5.2Y-1.97
X5.3Y-1.9
X5.3Y-2.04
X5.3Y-2.38
T2
X3.15Y-1.94
X3.15Y-2.0148
T3
X2.67Y-3.451
X2.67Y-3.751
X2.67Y-4.051
X2.67Y-4.351
X2.67Y-4.651
X2.77Y-3.351
X2.77Y-3.651
X2.77Y-3.951
X2.77Y-4.251
X2.77Y-4.551
X2.87Y-3.451
X2.87Y-3.751
X2.87Y-4.051
X2.87Y-4.351
X2.87Y-4.651
X3.85Y-2.851
X3.85Y-3.151
X3.85Y-3.451
X3.85Y-3.75
X3.85Y-4.051
X3.85Y-4.351
X3.85Y-4.651
X3.95Y-2.751
X3.95Y-3.051
X3.95Y-3.351
X3.95Y-3.65
X3.95Y-3.951
X3.95Y-4.251
X3.95Y-4.551
X4.05Y-2.851
X4.05Y-3.151
X4.05Y-3.451
X4.05Y-3.75
X4.05Y-4.051
X4.05Y-4.351
X4.05Y-4.651
X5.03Y-2.851
X5.03Y-3.151
X5.03Y-3.451
X5.03Y-3.751
X5.03Y-4.051
X5.03Y-4.351
X5.03Y-4.651
X5.13Y-2.751
X5.13Y-3.051
X5.13Y-3.351
X5.13Y-3.651
X5.13Y-3.951
X5.13Y-4.251
X5.13Y-4.551
X5.23Y-2.851
X5.23Y-3.151
X5.23Y-3.451
X5.23Y-3.751
X5.23Y-4.051
X5.23Y-4.351
X5.23Y-4.651
T4
X1.94Y-2.83
X1.94Y-2.93
X1.94Y-3.03
X1.94Y-3.13
X1.94Y-3.23
X1.94Y-3.33
X1.94Y-3.43
X1.94Y-3.53
X1.94Y-3.97
X1.94Y-4.07
X1.94Y-4.17
X1.94Y-4.27
X1.94Y-4.37
X1.94Y-4.47
X1.94Y-4.57
X1.94Y-4.67
X2.24Y-2.83
X2.24Y-2.93
X2.24Y-3.03
X2.24Y-3.13
X2.24Y-3.23
X2.24Y-3.33
X2.24Y-3.43
X2.24Y-3.53
X2.24Y-3.97
X2.24Y-4.07
X2.24Y-4.17
X2.24Y-4.27
X2.24Y-4.37
X2.24Y-4.47
X2.24Y-4.57
X2.24Y-4.67
X2.76Y-2.15
X2.76Y-2.45
X2.86Y-2.15
X2.86Y-2.45
X2.94Y-1.57
X2.94Y-1.7078
X2.96Y-2.15
X2.96Y-2.45
X3.06Y-2.15
X3.06Y-2.45
X3.12Y-2.83
X3.12Y-2.93
X3.12Y-3.03
X3.12Y-3.13
X3.12Y-3.23
X3.12Y-3.33
X3.12Y-3.43
X3.12Y-3.53
X3.12Y-3.97
X3.12Y-4.07
X3.12Y-4.17
X3.12Y-4.27
X3.12Y-4.37
X3.12Y-4.47
X3.12Y-4.57
X3.12Y-4.67
X3.16Y-2.15
X3.16Y-2.45
X3.26Y-2.15
X3.26Y-2.45
X3.36Y-2.15
X3.36Y-2.45
X3.42Y-2.83
X3.42Y-2.93
X3.42Y-3.03
X3.42Y-3.13
X3.42Y-3.23
X3.42Y-3.33
X3.42Y-3.43
X3.42Y-3.53
X3.42Y-3.97
X3.42Y-4.07
X3.42Y-4.17
X3.42Y-4.27
X3.42Y-4.37
X3.42Y-4.47
X3.42Y-4.57
X3.42Y-4.67
X3.46Y-2.15
X3.46Y-2.45
X3.78Y-1.49
X3.78Y-1.79
X3.78Y-2.15
X3.78Y-2.45
X3.88Y-1.49
X3.88Y-1.79
X3.88Y-2.15
X3.88Y-2.45
X3.98Y-1.49
X3.98Y-1.79
X3.98Y-2.15
X3.98Y-2.45
X4.08Y-1.49
X4.08Y-1.79
X4.08Y-2.15
X4.08Y-2.45
X4.18Y-1.49
X4.18Y-1.79
X4.18Y-2.15
X4.18Y-2.45
X4.28Y-1.49
X4.28Y-1.79
X4.28Y-2.15
X4.28Y-2.45
X4.3Y-2.83
X4.3Y-2.93
X4.3Y-3.03
X4.3Y-3.13
X4.3Y-3.23
X4.3Y-3.33
X4.3Y-3.43
X4.3Y-3.53
X4.3Y-3.97
X4.3Y-4.07
X4.3Y-4.17
X4.3Y-4.27
X4.3Y-4.37
X4.3Y-4.47
X4.3Y-4.57
X4.3Y-4.67
X4.38Y-1.49
X4.38Y-1.79
X4.38Y-2.15
X4.38Y-2.45
X4.6Y-2.83
X4.6Y-2.93
X4.6Y-3.03
X4.6Y-3.13
X4.6Y-3.23
X4.6Y-3.33
X4.6Y-3.43
X4.6Y-3.53
X4.6Y-3.97
X4.6Y-4.07
X4.6Y-4.17
X4.6Y-4.27
X4.6Y-4.37
X4.6Y-4.47
X4.6Y-4.57
X4.6Y-4.67
X4.7Y-1.49
X4.7Y-1.79
X4.7Y-2.15
X4.7Y-2.45
X4.8Y-1.49
X4.8Y-1.79
X4.8Y-2.15
X4.8Y-2.45
X4.9Y-1.49
X4.9Y-1.79
X4.9Y-2.15
X4.9Y-2.45
X5.0Y-1.49
X5.0Y-1.79
X5.0Y-2.15
X5.0Y-2.45
X5.1Y-1.49
X5.1Y-1.79
X5.1Y-2.15
X5.1Y-2.45
X5.2Y-1.49
X5.2Y-1.79
X5.2Y-2.15
X5.2Y-2.45
X5.3Y-1.49
X5.3Y-1.79
X5.3Y-2.15
X5.3Y-2.45
T6
X2.6Y-5.06
X2.8Y-5.06
X3.78Y-5.06
X3.98Y-5.06
X4.96Y-5.06
X5.16Y-5.06
T5
G00X1.9638Y-1.6406
M15
G01X1.9638Y-1.7194
M16
G05
G00X2.0425Y-1.865
M15
G01X2.1213Y-1.865
M16
G05
G00X2.2Y-1.6406
M15
G01X2.2Y-1.7194
M16
G05
T0
M30
